<svg xmlns="http://www.w3.org/2000/svg" width="54" height="34" fill="none"><path fill="#F9F9F9" d="M52.129 0H1.797C.805 0 0 .805 0 1.797v30.108c0 .992.805 1.797 1.797 1.797H52.13c.992 0 1.797-.805 1.797-1.797V1.797C53.926.805 53.12 0 52.129 0"/><path fill="#0066B2" d="M24.815 21.913H22.18l1.646-10.116h2.636zM19.966 11.797l-2.511 6.956-.297-1.496-.89-4.548a1.123 1.123 0 0 0-1.246-.912h-4.153l-.048.172a9.8 9.8 0 0 1 2.756 1.157l2.287 8.8h2.748l4.174-10.129zM40.684 21.926h2.42L40.999 11.81h-2.12a1.21 1.21 0 0 0-1.216.753l-3.93 9.363h2.748l.55-1.5h3.35zm-2.897-3.577 1.384-3.787.778 3.787zM33.939 14.23l.378-2.192a7.7 7.7 0 0 0-2.369-.43c-1.31 0-4.432.58-4.432 3.358 0 2.614 3.646 2.644 3.646 4.02s-3.268 1.126-4.347.258l-.391 2.274c.94.395 1.951.59 2.97.572 1.798 0 4.51-.933 4.51-3.465 0-2.631-3.675-2.876-3.675-4.02s2.584-.997 3.71-.374"/><path fill="#F9A533" d="m17.158 17.257-.89-4.548a1.123 1.123 0 0 0-1.246-.912h-4.153l-.048.172a10.2 10.2 0 0 1 3.908 1.96 7.9 7.9 0 0 1 2.43 3.328"/></svg>